<mxfile host="65bd71144e">
    <diagram id="0wO5liZ9OR7lbL87WMWF" name="Page-1">
        <mxGraphModel dx="1231" dy="662" grid="1" gridSize="10" guides="1" tooltips="1" connect="1" arrows="1" fold="1" page="1" pageScale="1" pageWidth="850" pageHeight="1100" math="0" shadow="0">
            <root>
                <mxCell id="0"/>
                <mxCell id="1" parent="0"/>
                <mxCell id="23" value="/" style="edgeStyle=none;html=1;" edge="1" parent="1" source="2" target="22">
                    <mxGeometry x="-0.156" y="-5" relative="1" as="geometry">
                        <mxPoint as="offset"/>
                    </mxGeometry>
                </mxCell>
                <mxCell id="41" value="letter" style="edgeStyle=none;html=1;exitX=0.5;exitY=0;exitDx=0;exitDy=0;entryX=0;entryY=1;entryDx=0;entryDy=0;" edge="1" parent="1" source="2" target="3">
                    <mxGeometry relative="1" as="geometry"/>
                </mxCell>
                <mxCell id="51" value="" style="edgeStyle=none;html=1;" edge="1" parent="1" source="2" target="22">
                    <mxGeometry relative="1" as="geometry"/>
                </mxCell>
                <mxCell id="53" value="+|-" style="edgeStyle=none;html=1;" edge="1" parent="1" source="2" target="52">
                    <mxGeometry relative="1" as="geometry"/>
                </mxCell>
                <mxCell id="2" value="start" style="ellipse;whiteSpace=wrap;html=1;aspect=fixed;" vertex="1" parent="1">
                    <mxGeometry x="100" y="310" width="80" height="80" as="geometry"/>
                </mxCell>
                <mxCell id="59" value="sp" style="edgeStyle=none;html=1;exitX=1;exitY=1;exitDx=0;exitDy=0;entryX=1;entryY=0.5;entryDx=0;entryDy=0;" edge="1" parent="1" source="3" target="57">
                    <mxGeometry relative="1" as="geometry">
                        <Array as="points">
                            <mxPoint x="582" y="170"/>
                            <mxPoint x="990" y="110"/>
                            <mxPoint x="1210" y="280"/>
                            <mxPoint x="1290" y="390"/>
                            <mxPoint x="1240" y="510"/>
                            <mxPoint x="1190" y="620"/>
                            <mxPoint x="1080" y="640"/>
                            <mxPoint x="830" y="650"/>
                        </Array>
                    </mxGeometry>
                </mxCell>
                <mxCell id="3" value="" style="ellipse;whiteSpace=wrap;html=1;aspect=fixed;" vertex="1" parent="1">
                    <mxGeometry x="220" y="140" width="80" height="80" as="geometry"/>
                </mxCell>
                <mxCell id="4" value="var" style="ellipse;whiteSpace=wrap;html=1;aspect=fixed;" vertex="1" parent="1">
                    <mxGeometry x="230" y="150" width="60" height="60" as="geometry"/>
                </mxCell>
                <mxCell id="34" value="." style="edgeStyle=none;html=1;" edge="1" parent="1" source="10" target="33">
                    <mxGeometry relative="1" as="geometry"/>
                </mxCell>
                <mxCell id="10" value="" style="ellipse;whiteSpace=wrap;html=1;aspect=fixed;" vertex="1" parent="1">
                    <mxGeometry x="430" y="430" width="80" height="80" as="geometry"/>
                </mxCell>
                <mxCell id="32" value="op" style="edgeStyle=none;html=1;entryX=0.5;entryY=0;entryDx=0;entryDy=0;exitX=0;exitY=0.625;exitDx=0;exitDy=0;exitPerimeter=0;" edge="1" parent="1" source="10" target="29">
                    <mxGeometry relative="1" as="geometry">
                        <mxPoint x="470" y="580" as="targetPoint"/>
                        <Array as="points">
                            <mxPoint x="360" y="580"/>
                        </Array>
                    </mxGeometry>
                </mxCell>
                <mxCell id="11" value="int" style="ellipse;whiteSpace=wrap;html=1;aspect=fixed;" vertex="1" parent="1">
                    <mxGeometry x="440" y="440" width="60" height="60" as="geometry"/>
                </mxCell>
                <mxCell id="15" value="" style="curved=1;endArrow=classic;html=1;entryX=0.96;entryY=0.272;entryDx=0;entryDy=0;entryPerimeter=0;exitX=1;exitY=0.5;exitDx=0;exitDy=0;" edge="1" parent="1" source="10" target="10">
                    <mxGeometry width="50" height="50" relative="1" as="geometry">
                        <mxPoint x="500" y="490" as="sourcePoint"/>
                        <mxPoint x="620" y="500" as="targetPoint"/>
                        <Array as="points">
                            <mxPoint x="560" y="452"/>
                            <mxPoint x="560" y="440"/>
                            <mxPoint x="550" y="430"/>
                        </Array>
                    </mxGeometry>
                </mxCell>
                <mxCell id="17" value="digit" style="edgeLabel;html=1;align=center;verticalAlign=middle;resizable=0;points=[];" connectable="0" vertex="1" parent="15">
                    <mxGeometry x="0.0408" y="1" relative="1" as="geometry">
                        <mxPoint as="offset"/>
                    </mxGeometry>
                </mxCell>
                <mxCell id="18" value="" style="curved=1;endArrow=classic;html=1;entryX=0.683;entryY=0.045;entryDx=0;entryDy=0;exitX=0.925;exitY=0.239;exitDx=0;exitDy=0;exitPerimeter=0;entryPerimeter=0;" edge="1" parent="1" source="3" target="3">
                    <mxGeometry width="50" height="50" relative="1" as="geometry">
                        <mxPoint x="301.45273355288526" y="154.71286207726712" as="sourcePoint"/>
                        <mxPoint x="310.0000000000063" y="130.00000000000023" as="targetPoint"/>
                        <Array as="points">
                            <mxPoint x="320" y="141"/>
                            <mxPoint x="290" y="120"/>
                        </Array>
                    </mxGeometry>
                </mxCell>
                <mxCell id="19" value="letter | digit" style="edgeLabel;html=1;align=center;verticalAlign=middle;resizable=0;points=[];" connectable="0" vertex="1" parent="18">
                    <mxGeometry x="0.0408" y="1" relative="1" as="geometry">
                        <mxPoint x="6" y="4" as="offset"/>
                    </mxGeometry>
                </mxCell>
                <mxCell id="25" value="/" style="edgeStyle=none;html=1;" edge="1" parent="1" source="22" target="24">
                    <mxGeometry y="-10" relative="1" as="geometry">
                        <mxPoint as="offset"/>
                    </mxGeometry>
                </mxCell>
                <mxCell id="22" value="comment start" style="ellipse;whiteSpace=wrap;html=1;aspect=fixed;" vertex="1" parent="1">
                    <mxGeometry x="30" y="460" width="80" height="80" as="geometry"/>
                </mxCell>
                <mxCell id="24" value="comment" style="ellipse;whiteSpace=wrap;html=1;aspect=fixed;" vertex="1" parent="1">
                    <mxGeometry x="30" y="620" width="80" height="80" as="geometry"/>
                </mxCell>
                <mxCell id="27" value="/" style="edgeStyle=none;html=1;exitX=0.017;exitY=0.313;exitDx=0;exitDy=0;entryX=1;entryY=0.5;entryDx=0;entryDy=0;exitPerimeter=0;" edge="1" parent="1" source="26" target="24">
                    <mxGeometry x="-0.0534" y="-4" relative="1" as="geometry">
                        <mxPoint as="offset"/>
                    </mxGeometry>
                </mxCell>
                <mxCell id="30" value="" style="edgeStyle=none;html=1;" edge="1" parent="1" source="26" target="29">
                    <mxGeometry relative="1" as="geometry"/>
                </mxCell>
                <mxCell id="26" value="div" style="ellipse;whiteSpace=wrap;html=1;aspect=fixed;" vertex="1" parent="1">
                    <mxGeometry x="160" y="670" width="80" height="80" as="geometry"/>
                </mxCell>
                <mxCell id="43" value="digit" style="edgeStyle=none;html=1;exitX=0.73;exitY=0.033;exitDx=0;exitDy=0;exitPerimeter=0;entryX=0.156;entryY=0.927;entryDx=0;entryDy=0;entryPerimeter=0;" edge="1" parent="1" source="29" target="10">
                    <mxGeometry relative="1" as="geometry">
                        <mxPoint x="470" y="510.0000000000001" as="targetPoint"/>
                    </mxGeometry>
                </mxCell>
                <mxCell id="79" value="+/-" style="edgeStyle=none;html=1;exitX=0;exitY=0;exitDx=0;exitDy=0;entryX=0.5;entryY=1;entryDx=0;entryDy=0;" edge="1" parent="1" source="29" target="52">
                    <mxGeometry relative="1" as="geometry"/>
                </mxCell>
                <mxCell id="29" value="op" style="ellipse;whiteSpace=wrap;html=1;aspect=fixed;" vertex="1" parent="1">
                    <mxGeometry x="310" y="670" width="80" height="80" as="geometry"/>
                </mxCell>
                <mxCell id="36" value="" style="edgeStyle=none;html=1;" edge="1" parent="1" source="33" target="63">
                    <mxGeometry relative="1" as="geometry">
                        <mxPoint x="720.00000000001" y="330.0000000000001" as="targetPoint"/>
                    </mxGeometry>
                </mxCell>
                <mxCell id="33" value="dot" style="ellipse;whiteSpace=wrap;html=1;aspect=fixed;" vertex="1" parent="1">
                    <mxGeometry x="560" y="290" width="80" height="80" as="geometry"/>
                </mxCell>
                <mxCell id="37" value="" style="curved=1;endArrow=classic;html=1;entryX=1.017;entryY=0.585;entryDx=0;entryDy=0;exitX=1;exitY=1;exitDx=0;exitDy=0;entryPerimeter=0;" edge="1" parent="1" source="63" target="63">
                    <mxGeometry width="50" height="50" relative="1" as="geometry">
                        <mxPoint x="790.0047523777212" y="354.987801902177" as="sourcePoint"/>
                        <mxPoint x="798.77" y="330" as="targetPoint"/>
                        <Array as="points">
                            <mxPoint x="808.77" y="370"/>
                            <mxPoint x="828.77" y="360"/>
                            <mxPoint x="828.77" y="340"/>
                        </Array>
                    </mxGeometry>
                </mxCell>
                <mxCell id="38" value="digit" style="edgeLabel;html=1;align=center;verticalAlign=middle;resizable=0;points=[];" connectable="0" vertex="1" parent="37">
                    <mxGeometry x="0.0408" y="1" relative="1" as="geometry">
                        <mxPoint as="offset"/>
                    </mxGeometry>
                </mxCell>
                <mxCell id="44" value="digit" style="curved=1;endArrow=classic;html=1;exitX=1;exitY=0.5;exitDx=0;exitDy=0;entryX=0;entryY=0;entryDx=0;entryDy=0;" edge="1" parent="1" source="2" target="10">
                    <mxGeometry width="50" height="50" relative="1" as="geometry">
                        <mxPoint x="340" y="340" as="sourcePoint"/>
                        <mxPoint x="390" y="290" as="targetPoint"/>
                        <Array as="points">
                            <mxPoint x="270" y="330"/>
                            <mxPoint x="370" y="350"/>
                        </Array>
                    </mxGeometry>
                </mxCell>
                <mxCell id="54" value="digit" style="edgeStyle=none;html=1;exitX=1;exitY=0.5;exitDx=0;exitDy=0;entryX=0;entryY=0.5;entryDx=0;entryDy=0;" edge="1" parent="1" source="52" target="10">
                    <mxGeometry relative="1" as="geometry"/>
                </mxCell>
                <mxCell id="52" value="n_sign" style="ellipse;whiteSpace=wrap;html=1;aspect=fixed;" vertex="1" parent="1">
                    <mxGeometry x="190" y="430" width="80" height="80" as="geometry"/>
                </mxCell>
                <mxCell id="62" value="op" style="edgeStyle=none;html=1;exitX=0;exitY=0.5;exitDx=0;exitDy=0;" edge="1" parent="1" source="57" target="29">
                    <mxGeometry relative="1" as="geometry">
                        <Array as="points">
                            <mxPoint x="520" y="650"/>
                            <mxPoint x="470" y="650"/>
                            <mxPoint x="420" y="660"/>
                        </Array>
                    </mxGeometry>
                </mxCell>
                <mxCell id="57" value="sp" style="ellipse;shape=doubleEllipse;whiteSpace=wrap;html=1;aspect=fixed;" vertex="1" parent="1">
                    <mxGeometry x="570" y="620" width="80" height="80" as="geometry"/>
                </mxCell>
                <mxCell id="60" value="sp" style="edgeStyle=none;html=1;exitX=1;exitY=0;exitDx=0;exitDy=0;entryX=0.5;entryY=0;entryDx=0;entryDy=0;" edge="1" parent="1" source="57" target="57">
                    <mxGeometry relative="1" as="geometry">
                        <Array as="points">
                            <mxPoint x="670" y="590"/>
                            <mxPoint x="650" y="580"/>
                        </Array>
                    </mxGeometry>
                </mxCell>
                <mxCell id="65" value="e/E" style="edgeStyle=none;html=1;entryX=0.5;entryY=0;entryDx=0;entryDy=0;" edge="1" parent="1" source="63" target="66">
                    <mxGeometry relative="1" as="geometry">
                        <mxPoint x="760" y="439.9999999999999" as="targetPoint"/>
                    </mxGeometry>
                </mxCell>
                <mxCell id="63" value="float" style="ellipse;shape=doubleEllipse;whiteSpace=wrap;html=1;aspect=fixed;" vertex="1" parent="1">
                    <mxGeometry x="720" y="280" width="80" height="80" as="geometry"/>
                </mxCell>
                <mxCell id="73" value="+/-" style="edgeStyle=none;html=1;exitX=1;exitY=0.5;exitDx=0;exitDy=0;entryX=0;entryY=0.5;entryDx=0;entryDy=0;" edge="1" parent="1" source="66" target="70">
                    <mxGeometry relative="1" as="geometry"/>
                </mxCell>
                <mxCell id="66" value="exp" style="ellipse;whiteSpace=wrap;html=1;aspect=fixed;" vertex="1" parent="1">
                    <mxGeometry x="720" y="440" width="80" height="80" as="geometry"/>
                </mxCell>
                <mxCell id="75" value="digit" style="edgeStyle=none;html=1;exitX=1;exitY=0.5;exitDx=0;exitDy=0;entryX=0;entryY=0.5;entryDx=0;entryDy=0;" edge="1" parent="1" source="70" target="74">
                    <mxGeometry relative="1" as="geometry"/>
                </mxCell>
                <mxCell id="70" value="e_sign" style="ellipse;whiteSpace=wrap;html=1;aspect=fixed;" vertex="1" parent="1">
                    <mxGeometry x="850" y="440" width="80" height="80" as="geometry"/>
                </mxCell>
                <mxCell id="77" value="sp" style="edgeStyle=none;html=1;exitX=0;exitY=1;exitDx=0;exitDy=0;entryX=0.973;entryY=0.36;entryDx=0;entryDy=0;entryPerimeter=0;" edge="1" parent="1" source="74" target="57">
                    <mxGeometry relative="1" as="geometry"/>
                </mxCell>
                <mxCell id="78" value="op" style="edgeStyle=none;html=1;exitX=0.5;exitY=1;exitDx=0;exitDy=0;entryX=1.037;entryY=0.696;entryDx=0;entryDy=0;entryPerimeter=0;" edge="1" parent="1" source="74" target="29">
                    <mxGeometry relative="1" as="geometry">
                        <mxPoint x="1039.5882352941176" y="770" as="targetPoint"/>
                        <Array as="points">
                            <mxPoint x="1060" y="560"/>
                            <mxPoint x="1070" y="610"/>
                            <mxPoint x="1080" y="680"/>
                            <mxPoint x="1060" y="740"/>
                            <mxPoint x="990" y="770"/>
                            <mxPoint x="900" y="770"/>
                            <mxPoint x="730" y="770"/>
                            <mxPoint x="550" y="770"/>
                        </Array>
                    </mxGeometry>
                </mxCell>
                <mxCell id="74" value="e_float" style="ellipse;shape=doubleEllipse;whiteSpace=wrap;html=1;aspect=fixed;" vertex="1" parent="1">
                    <mxGeometry x="1000" y="440" width="80" height="80" as="geometry"/>
                </mxCell>
                <mxCell id="76" value="digit" style="edgeStyle=none;html=1;exitX=1;exitY=0;exitDx=0;exitDy=0;entryX=0.569;entryY=-0.039;entryDx=0;entryDy=0;entryPerimeter=0;" edge="1" parent="1" source="74" target="74">
                    <mxGeometry relative="1" as="geometry">
                        <Array as="points">
                            <mxPoint x="1090" y="437"/>
                            <mxPoint x="1080" y="420"/>
                            <mxPoint x="1060" y="420"/>
                        </Array>
                    </mxGeometry>
                </mxCell>
            </root>
        </mxGraphModel>
    </diagram>
</mxfile>